{
    "asset" : {
        "copyright" : "Zydhan Linnar Putra",
        "generator" : "Khronos glTF Blender I/O v3.4.49",
        "version" : "2.0"
    },
    "scene" : 0,
    "scenes" : [
        {
            "name" : "Scene",
            "nodes" : [
                0,
                1,
                2,
                3,
                4,
                5,
                6,
                7,
                8,
                9
            ]
        }
    ],
    "nodes" : [
        {
            "mesh" : 0,
            "name" : "Rose"
        },
        {
            "name" : "Empty",
            "rotation" : [
                0,
                0.5877853035926819,
                0,
                0.80901700258255
            ]
        },
        {
            "mesh" : 1,
            "name" : "Rose.001",
            "rotation" : [
                -0.3327403664588928,
                -0.07683584094047546,
                0.007779798004776239,
                0.9398508667945862
            ]
        },
        {
            "name" : "Empty.001",
            "rotation" : [
                -0.2737654745578766,
                0.4902690052986145,
                -0.18928593397140503,
                0.8055182099342346
            ]
        },
        {
            "mesh" : 2,
            "name" : "Rose.002",
            "rotation" : [
                0.32892102003097534,
                -0.0647861510515213,
                -0.042036022990942,
                0.9411942958831787
            ],
            "translation" : [
                -0.005788124166429043,
                -0.056608568876981735,
                0.02588433027267456
            ]
        },
        {
            "name" : "Empty.002",
            "rotation" : [
                0.29081079363822937,
                0.5008071064949036,
                0.15932707488536835,
                0.7995225191116333
            ],
            "translation" : [
                -0.005788124166429043,
                -0.056608568876981735,
                0.02588433027267456
            ]
        },
        {
            "mesh" : 3,
            "name" : "Rose.003",
            "rotation" : [
                0,
                0,
                0.3264714181423187,
                0.9452070593833923
            ],
            "translation" : [
                0.03474622964859009,
                -0.021051809191703796,
                -0.02546270750463009
            ]
        },
        {
            "name" : "Empty.003",
            "rotation" : [
                -0.19189508259296417,
                0.5555788278579712,
                0.2641209363937378,
                0.7646885514259338
            ],
            "translation" : [
                0.03474622964859009,
                -0.021051809191703796,
                -0.02546270750463009
            ]
        },
        {
            "mesh" : 4,
            "name" : "Rose.004",
            "rotation" : [
                0,
                0,
                -0.3341149687767029,
                0.9425324201583862
            ],
            "translation" : [
                -0.010545114986598492,
                0.008309037424623966,
                -0.015591311268508434
            ]
        },
        {
            "name" : "Empty.004",
            "rotation" : [
                0.19638784229755402,
                0.5540066361427307,
                -0.2703046500682831,
                0.7625246644020081
            ],
            "translation" : [
                -0.010545114986598492,
                0.008309037424623966,
                -0.015591311268508434
            ]
        }
    ],
    "materials" : [
        {
            "doubleSided" : true,
            "name" : "Bunga",
            "pbrMetallicRoughness" : {
                "baseColorTexture" : {
                    "index" : 0
                },
                "metallicFactor" : 0,
                "roughnessFactor" : 0.5
            }
        }
    ],
    "meshes" : [
        {
            "name" : "Circle",
            "primitives" : [
                {
                    "attributes" : {
                        "POSITION" : 0,
                        "TEXCOORD_0" : 1,
                        "NORMAL" : 2
                    },
                    "indices" : 3,
                    "material" : 0
                }
            ]
        },
        {
            "name" : "Circle.002",
            "primitives" : [
                {
                    "attributes" : {
                        "POSITION" : 4,
                        "TEXCOORD_0" : 5,
                        "NORMAL" : 6
                    },
                    "indices" : 3,
                    "material" : 0
                }
            ]
        },
        {
            "name" : "Circle.003",
            "primitives" : [
                {
                    "attributes" : {
                        "POSITION" : 7,
                        "TEXCOORD_0" : 8,
                        "NORMAL" : 9
                    },
                    "indices" : 3,
                    "material" : 0
                }
            ]
        },
        {
            "name" : "Circle.004",
            "primitives" : [
                {
                    "attributes" : {
                        "POSITION" : 10,
                        "TEXCOORD_0" : 11,
                        "NORMAL" : 12
                    },
                    "indices" : 3,
                    "material" : 0
                }
            ]
        },
        {
            "name" : "Circle.005",
            "primitives" : [
                {
                    "attributes" : {
                        "POSITION" : 13,
                        "TEXCOORD_0" : 14,
                        "NORMAL" : 15
                    },
                    "indices" : 3,
                    "material" : 0
                }
            ]
        }
    ],
    "textures" : [
        {
            "sampler" : 0,
            "source" : 0
        }
    ],
    "images" : [
        {
            "bufferView" : 4,
            "mimeType" : "image/png",
            "name" : "Texture Bunga"
        }
    ],
    "accessors" : [
        {
            "bufferView" : 0,
            "componentType" : 5126,
            "count" : 19,
            "max" : [
                -0.0003256516356486827,
                3.7747085094451904,
                0.7215277552604675
            ],
            "min" : [
                -1.4066637754440308,
                0.0032988600432872772,
                -0.686529815196991
            ],
            "type" : "VEC3"
        },
        {
            "bufferView" : 1,
            "componentType" : 5126,
            "count" : 19,
            "type" : "VEC2"
        },
        {
            "bufferView" : 2,
            "componentType" : 5126,
            "count" : 19,
            "type" : "VEC3"
        },
        {
            "bufferView" : 3,
            "componentType" : 5123,
            "count" : 54,
            "type" : "SCALAR"
        },
        {
            "bufferView" : 5,
            "componentType" : 5126,
            "count" : 19,
            "max" : [
                -0.0003256516356486827,
                3.7747085094451904,
                0.7215277552604675
            ],
            "min" : [
                -1.4066637754440308,
                0.0032988600432872772,
                -0.686529815196991
            ],
            "type" : "VEC3"
        },
        {
            "bufferView" : 6,
            "componentType" : 5126,
            "count" : 19,
            "type" : "VEC2"
        },
        {
            "bufferView" : 7,
            "componentType" : 5126,
            "count" : 19,
            "type" : "VEC3"
        },
        {
            "bufferView" : 8,
            "componentType" : 5126,
            "count" : 19,
            "max" : [
                -0.0003256516356486827,
                3.7747085094451904,
                0.7215277552604675
            ],
            "min" : [
                -1.4066637754440308,
                0.0032988600432872772,
                -0.686529815196991
            ],
            "type" : "VEC3"
        },
        {
            "bufferView" : 9,
            "componentType" : 5126,
            "count" : 19,
            "type" : "VEC2"
        },
        {
            "bufferView" : 10,
            "componentType" : 5126,
            "count" : 19,
            "type" : "VEC3"
        },
        {
            "bufferView" : 11,
            "componentType" : 5126,
            "count" : 19,
            "max" : [
                -0.0003256516356486827,
                3.7747085094451904,
                0.7215277552604675
            ],
            "min" : [
                -1.4066637754440308,
                0.0032988600432872772,
                -0.686529815196991
            ],
            "type" : "VEC3"
        },
        {
            "bufferView" : 12,
            "componentType" : 5126,
            "count" : 19,
            "type" : "VEC2"
        },
        {
            "bufferView" : 13,
            "componentType" : 5126,
            "count" : 19,
            "type" : "VEC3"
        },
        {
            "bufferView" : 14,
            "componentType" : 5126,
            "count" : 19,
            "max" : [
                -0.0003256516356486827,
                3.7747085094451904,
                0.7215277552604675
            ],
            "min" : [
                -1.4066637754440308,
                0.0032988600432872772,
                -0.686529815196991
            ],
            "type" : "VEC3"
        },
        {
            "bufferView" : 15,
            "componentType" : 5126,
            "count" : 19,
            "type" : "VEC2"
        },
        {
            "bufferView" : 16,
            "componentType" : 5126,
            "count" : 19,
            "type" : "VEC3"
        }
    ],
    "bufferViews" : [
        {
            "buffer" : 0,
            "byteLength" : 228,
            "byteOffset" : 0,
            "target" : 34962
        },
        {
            "buffer" : 0,
            "byteLength" : 152,
            "byteOffset" : 228,
            "target" : 34962
        },
        {
            "buffer" : 0,
            "byteLength" : 228,
            "byteOffset" : 380,
            "target" : 34962
        },
        {
            "buffer" : 0,
            "byteLength" : 108,
            "byteOffset" : 608,
            "target" : 34963
        },
        {
            "buffer" : 0,
            "byteLength" : 100872,
            "byteOffset" : 716
        },
        {
            "buffer" : 0,
            "byteLength" : 228,
            "byteOffset" : 101588,
            "target" : 34962
        },
        {
            "buffer" : 0,
            "byteLength" : 152,
            "byteOffset" : 101816,
            "target" : 34962
        },
        {
            "buffer" : 0,
            "byteLength" : 228,
            "byteOffset" : 101968,
            "target" : 34962
        },
        {
            "buffer" : 0,
            "byteLength" : 228,
            "byteOffset" : 102196,
            "target" : 34962
        },
        {
            "buffer" : 0,
            "byteLength" : 152,
            "byteOffset" : 102424,
            "target" : 34962
        },
        {
            "buffer" : 0,
            "byteLength" : 228,
            "byteOffset" : 102576,
            "target" : 34962
        },
        {
            "buffer" : 0,
            "byteLength" : 228,
            "byteOffset" : 102804,
            "target" : 34962
        },
        {
            "buffer" : 0,
            "byteLength" : 152,
            "byteOffset" : 103032,
            "target" : 34962
        },
        {
            "buffer" : 0,
            "byteLength" : 228,
            "byteOffset" : 103184,
            "target" : 34962
        },
        {
            "buffer" : 0,
            "byteLength" : 228,
            "byteOffset" : 103412,
            "target" : 34962
        },
        {
            "buffer" : 0,
            "byteLength" : 152,
            "byteOffset" : 103640,
            "target" : 34962
        },
        {
            "buffer" : 0,
            "byteLength" : 228,
            "byteOffset" : 103792,
            "target" : 34962
        }
    ],
    "samplers" : [
        {
            "magFilter" : 9729,
            "minFilter" : 9987
        }
    ],
    "buffers" : [
        {
            "byteLength" : 104020,
            "uri" : "data:application/octet-stream;base64,"
        }
    ]
}
